# xmcd
#
# Track frame offsets:
#	150
#	12880
#	27753
#	42613
#	56423
#	69202
#	84470
#	101840
#	113435
#	124947
#	136239
#	146195
#	157324
#	167054
#	180991
#	191593
#	203132
#	214116
#	232529
#	247474
#	260697
#	275245
#
# Disc length: 3888 seconds
# Revision: 0
# Processed by: cddbd v1.5.2PL0 Copyright (c) Steve Scherf et al.
# Submitted via: dBpowerAMP V12.0
#
DISCID=430f2e16
DTITLE=Various Artist - Country greats - Millenium collection (2000) 2CDs - CD1
DYEAR=2000
DGENRE=USA English Oldies Country Folk Protes Party Sauflied LineDance
TTITLE0=Johnny Cash - Folsom prison blues
TTITLE1=Bellamy Brothers - Lovers live longer
TTITLE2=Kingston Trio - Tom Dooley
TTITLE3=Willie Nelson - Home is where you´re happy
TTITLE4=Lynn Anderson - Rose garden (Neu)
TTITLE5=Merle Haggard - Mule skinner blues
TTITLE6=Ferlin Husky - Convoy
TTITLE7=Dolly Parton - Making believe
TTITLE8=Jonny Lee - Ramblin´ rose
TTITLE9=Waylon Jennings - Sally was a good old girl
TTITLE10=Freddy Fender - Beforethe next teardrop falls (live)
TTITLE11=Tammy Wynette - D.i.v.o.r.c.e. (live)
TTITLE12=Carl Perkins - This old house
TTITLE13=Danny Davis And The Nashville Brass - Blue bayou (live)
TTITLE14=Bob Wills - Take me back to Texas
TTITLE15=Hoyt Axton - No no song
TTITLE16=Rex Allen Junior - It´s over (live)
TTITLE17=Nitty Gritty Dirt Band - Mr. Bojangles (live)
TTITLE18=Olivia Newton-John - Take me home country road
TTITLE19=Roy Accuf - Tennessee waltz
TTITLE20=Mel Tilis - Detroit city (live)
TTITLE21=John Brack And Jeff Turner - Amazing grace
EXTD=
EXTT0=
EXTT1=
EXTT2=
EXTT3=
EXTT4=
EXTT5=
EXTT6=
EXTT7=
EXTT8=
EXTT9=
EXTT10=
EXTT11=
EXTT12=
EXTT13=
EXTT14=
EXTT15=
EXTT16=
EXTT17=
EXTT18=
EXTT19=
EXTT20=
EXTT21=
PLAYORDER=
